<svg width="47" height="47" viewBox="0 0 47 47" fill="none" xmlns="http://www.w3.org/2000/svg">
<g id="fluent:call-16-filled">
<path id="Vector" d="M19.5486 20.3242L22.6562 17.477C23.506 16.6969 24.1032 15.6808 24.3713 14.5589C24.6394 13.437 24.5661 12.2606 24.1609 11.1807L22.8356 7.6419C22.3405 6.32077 21.3603 5.23811 20.0948 4.61447C18.8293 3.99084 17.3736 3.87316 16.0243 4.28542C11.059 5.80451 7.24246 10.4197 8.41723 15.9C9.1898 19.5053 10.6684 24.0308 13.4693 28.8456C16.276 33.672 19.482 37.2368 22.2309 39.7426C26.3802 43.5186 32.3119 42.5753 36.1285 39.0163C37.1515 38.0624 37.7723 36.7543 37.8642 35.3586C37.9562 33.9628 37.5123 32.5846 36.6232 31.5047L34.1927 28.5534C33.4596 27.6609 32.4763 27.0081 31.3692 26.6791C30.262 26.3501 29.0818 26.3599 27.9803 26.7073L23.9641 27.9718C22.9269 26.9014 22.018 25.7138 21.2558 24.433C20.52 23.1377 19.9467 21.7568 19.5486 20.3213" fill="white"/>
</g>
</svg>
