<svg width="156" height="82" viewBox="0 0 156 82" fill="none" xmlns="http://www.w3.org/2000/svg">
<g id="Bali 2" clip-path="url(#clip0_451_17847)">
<g id="Vector" filter="url(#filter0_d_451_17847)">
<path d="M0.483398 79.842V5.26521H27.4139C34.6645 5.26521 40.3613 6.92248 44.5045 10.237C48.544 13.5515 50.6156 18.109 50.6156 24.013C50.6156 28.1562 49.4762 31.7814 47.1975 34.7852C44.9188 37.8926 42.1221 39.9642 38.8076 41.2071C42.7436 41.8286 46.0581 43.693 48.7512 46.9039C51.4442 50.2185 52.7908 54.2581 52.7908 59.1263C52.7908 65.8589 50.3049 71.0378 45.4367 74.5595C40.4649 78.0812 33.9394 79.842 25.7567 79.842H0.483398ZM24.928 37.3747C34.8716 37.3747 39.8434 33.6458 39.8434 26.1882C39.8434 18.4197 34.8716 14.4837 24.928 14.4837H11.6699V37.3747H24.928ZM27.1032 70.6235C30.7285 70.6235 34.1466 69.8985 37.2539 68.4484C40.3613 66.9983 42.0186 63.5802 42.0186 58.0905C42.0186 50.1149 37.2539 46.0753 27.7247 46.0753H11.6699V70.6235H27.1032ZM67.2724 53.0151C71.7263 50.1149 78.1482 48.5612 86.4345 48.5612C89.9562 48.5612 92.6492 48.7684 94.5137 49.1827V45.7646C94.5137 42.2429 93.3743 39.4463 91.3027 37.4783C89.2311 35.6138 86.1238 34.5781 82.0842 34.5781C78.7697 34.5781 75.973 35.3031 73.6943 36.6496C71.4156 37.9962 69.9655 39.8606 69.2404 42.3465C65.9259 41.4143 64.2686 39.6534 64.2686 37.064C64.2686 33.853 66.0295 31.2635 69.7583 29.1919C73.3836 27.2239 78.1482 26.1882 84.0522 26.1882C98.1389 26.1882 105.182 32.2993 105.182 44.5216V67.5162C105.182 71.7629 105.7 75.181 106.84 77.8741C106.115 78.4955 105.182 79.117 103.939 79.5313C102.696 79.9456 101.557 80.1528 100.521 80.1528C98.864 80.1528 97.5175 79.5313 96.6888 78.0812C95.7566 76.7347 95.3423 74.8703 95.3423 72.4879V69.6913C94.3065 73.213 92.2349 75.9061 89.1276 77.8741C86.0202 79.9456 82.1878 80.8778 77.8375 80.8778C72.5549 80.8778 68.4118 79.5313 65.3044 76.7347C62.197 74.0416 60.6433 70.3128 60.6433 65.5482C60.6433 60.1621 62.8185 55.9153 67.2724 53.0151ZM73.7979 70.2092C75.4551 71.6593 77.8375 72.3844 80.9448 72.3844C84.8808 72.3844 88.1953 71.245 90.6812 68.8627C93.1671 66.5839 94.5137 63.5802 94.5137 59.8513V55.2938C93.0636 54.8795 90.5777 54.6724 87.2631 54.6724C76.4909 54.6724 71.2084 57.8833 71.2084 64.0981C71.2084 66.7911 72.037 68.7591 73.7979 70.2092ZM118.58 2.77932C120.03 2.26142 121.48 1.95068 122.93 1.95068C125.001 1.95068 126.659 2.57216 127.695 3.81511C128.73 5.05806 129.248 6.71532 129.248 8.89048V79.4277C127.798 80.0492 126.348 80.2564 124.898 80.2564C122.723 80.2564 121.169 79.7385 120.133 78.4955C119.097 77.2526 118.58 75.5953 118.58 73.3166V2.77932ZM143.258 11.1692L148.437 4.95448L154.134 10.0298C154.755 10.6513 155.17 11.48 155.17 12.3086C155.17 13.0336 154.755 13.7587 154.134 14.5873L148.851 20.8021L143.258 15.7267C142.533 15.1052 142.222 14.3802 142.222 13.5515C142.222 12.8265 142.533 11.9978 143.258 11.1692ZM143.569 27.2239H154.238V79.4277C152.787 80.0492 151.337 80.2564 149.887 80.2564C147.712 80.2564 146.158 79.7385 145.123 78.4955C144.087 77.2526 143.569 75.5953 143.569 73.3166V27.2239Z" fill="white"/>
<path d="M-0.0166016 79.842V80.342H0.483398H25.7567C34.0088 80.342 40.6452 78.5662 45.7257 74.9676L45.7297 74.9646C50.7438 71.3374 53.2908 65.9987 53.2908 59.1263C53.2908 54.1588 51.9139 50.0037 49.1392 46.5887L49.1393 46.5886L49.1343 46.5826C46.7366 43.7239 43.8492 41.8954 40.4835 41.0405C43.2407 39.7337 45.6141 37.7888 47.5983 35.0842C49.9488 31.9843 51.1156 28.2509 51.1156 24.013C51.1156 17.9759 48.9892 13.27 44.8216 9.85047L44.8216 9.85044L44.8168 9.84657C40.5574 6.43903 34.7367 4.76521 27.4139 4.76521H0.483398H-0.0166016V5.26521V79.842ZM94.0137 48.5717C92.1411 48.2285 89.6095 48.0612 86.4345 48.0612C78.0955 48.0612 71.5651 49.6232 66.9996 52.5961C62.3954 55.5941 60.1433 60.0034 60.1433 65.5482C60.1433 70.4306 61.7409 74.3062 64.9735 77.1095C68.1963 80.0082 72.4701 81.3778 77.8375 81.3778C82.255 81.3778 86.1901 80.4316 89.4 78.2933C91.8197 76.7598 93.6366 74.793 94.8423 72.3544V72.4879C94.8423 74.9071 95.2593 76.8836 96.2655 78.3481C97.2011 79.9702 98.7286 80.6528 100.521 80.6528C101.623 80.6528 102.816 80.4327 104.097 80.0057C105.415 79.5666 106.402 78.9073 107.165 78.2537L107.442 78.0158L107.3 77.6792C106.197 75.0722 105.682 71.7287 105.682 67.5162V44.5216C105.682 38.3135 103.89 33.5718 100.227 30.3939C96.5783 27.2277 91.1566 25.6882 84.0522 25.6882C78.0944 25.6882 73.2404 26.7327 69.5197 28.7525L69.5155 28.7549C65.6812 30.885 63.7686 33.6177 63.7686 37.064C63.7686 38.4762 64.225 39.6892 65.1475 40.6694C66.0593 41.6382 67.3955 42.347 69.105 42.8278L69.5817 42.9619L69.7204 42.4865C70.4094 40.1243 71.7778 38.3629 73.9487 37.0801C76.1379 35.7865 78.8434 35.0781 82.0842 35.0781C86.0408 35.0781 89.0115 36.0917 90.9632 37.8454C92.9164 39.7036 94.0137 42.3591 94.0137 45.7646V48.5717ZM74.1271 69.8329L74.1215 69.828L74.1157 69.8232C72.4924 68.4864 71.7084 66.673 71.7084 64.0981C71.7084 61.1643 72.9384 58.9729 75.451 57.4849C78.0039 55.973 81.9106 55.1724 87.2631 55.1724C90.3012 55.1724 92.5926 55.3481 94.0137 55.6809V59.8513C94.0137 63.4455 92.722 66.3137 90.3434 68.4941L90.3433 68.494L90.3353 68.5017C87.9617 70.7763 84.7813 71.8844 80.9448 71.8844C77.9092 71.8844 75.6619 71.1758 74.1271 69.8329ZM118.411 2.30845L118.08 2.42696V2.77932V73.3166C118.08 75.6719 118.616 77.456 119.749 78.8156C120.919 80.2194 122.649 80.7564 124.898 80.7564C126.397 80.7564 127.918 80.5419 129.445 79.8873L129.748 79.7574V79.4277V8.89048C129.748 6.63532 129.21 4.85263 128.079 3.49502C126.918 2.1021 125.096 1.45068 122.93 1.45068C121.408 1.45068 119.9 1.77672 118.411 2.30845ZM148.77 4.58115L148.384 4.23737L148.053 4.63439L142.882 10.84C142.88 10.8415 142.879 10.8431 142.878 10.8447C142.094 11.7419 141.722 12.6814 141.722 13.5515C141.722 14.5266 142.097 15.3877 142.927 16.1015C142.929 16.1031 142.931 16.1047 142.933 16.1063L148.515 21.1723L148.898 21.5194L149.232 21.1259L154.515 14.9111L154.525 14.8995L154.534 14.8873C155.156 14.0577 155.67 13.2143 155.67 12.3086C155.67 11.3173 155.179 10.3679 154.487 9.67629L154.477 9.6661L154.467 9.65652L148.77 4.58115ZM143.569 26.7239H143.069V27.2239V73.3166C143.069 75.6719 143.605 77.456 144.738 78.8156C145.908 80.2194 147.638 80.7564 149.887 80.7564C151.386 80.7564 152.907 80.5419 154.434 79.8873L154.738 79.7574V79.4277V27.2239V26.7239H154.238H143.569ZM39.3434 26.1882C39.3434 29.795 38.1487 32.4274 35.8146 34.1781C33.4534 35.949 29.8517 36.8747 24.928 36.8747H12.1699V14.9837H24.928C29.8472 14.9837 33.4452 15.9595 35.8055 17.8158C38.1432 19.6543 39.3434 22.4183 39.3434 26.1882ZM37.0425 67.9953C34.006 69.4123 30.6608 70.1235 27.1032 70.1235H12.1699V46.5753H27.7247C32.4304 46.5753 35.8675 47.5745 38.123 49.4745C40.3622 51.3608 41.5186 54.2053 41.5186 58.0905C41.5186 63.4997 39.89 66.6665 37.0425 67.9953Z" stroke="white"/>
</g>
</g>
<defs>
<filter id="filter0_d_451_17847" x="-10.5166" y="-9.04932" width="176.687" height="100.927" filterUnits="userSpaceOnUse" color-interpolation-filters="sRGB">
<feFlood flood-opacity="0" result="BackgroundImageFix"/>
<feColorMatrix in="SourceAlpha" type="matrix" values="0 0 0 0 0 0 0 0 0 0 0 0 0 0 0 0 0 0 127 0" result="hardAlpha"/>
<feOffset/>
<feGaussianBlur stdDeviation="5"/>
<feComposite in2="hardAlpha" operator="out"/>
<feColorMatrix type="matrix" values="0 0 0 0 0 0 0 0 0 0 0 0 0 0 0 0 0 0 0.25 0"/>
<feBlend mode="normal" in2="BackgroundImageFix" result="effect1_dropShadow_451_17847"/>
<feBlend mode="normal" in="SourceGraphic" in2="effect1_dropShadow_451_17847" result="shape"/>
</filter>
<clipPath id="clip0_451_17847">
<rect width="155.368" height="82" fill="white"/>
</clipPath>
</defs>
</svg>
