<svg width="90" height="90" viewBox="0 0 90 90" fill="none" xmlns="http://www.w3.org/2000/svg">
<path d="M84.375 45C84.375 52.7876 82.0657 60.4004 77.7391 66.8756C73.4125 73.3508 67.263 78.3976 60.0682 81.3778C52.8733 84.358 44.9563 85.1377 37.3183 83.6184C29.6803 82.0991 22.6644 78.349 17.1577 72.8423C11.651 67.3356 7.90088 60.3197 6.38158 52.6817C4.86229 45.0437 5.64204 37.1267 8.62225 29.9318C11.6024 22.737 16.6492 16.5875 23.1244 12.2609C29.5996 7.9343 37.2124 5.625 45 5.625C55.4429 5.625 65.4581 9.77343 72.8423 17.1577C80.2266 24.5419 84.375 34.5571 84.375 45ZM67.5 42.1875H33.3281L49.0219 26.4178L45 22.5L22.5 45L45 67.5L49.0219 63.4866L33.3281 47.8125H67.5V42.1875Z" fill="#FF010C"/>
<path d="M67.5 42.1875H33.3281L49.0219 26.4178L45 22.5L22.5 45L45 67.5L49.0219 63.4866L33.3281 47.8125H67.5V42.1875Z" fill="white"/>
</svg>
