<svg width="90" height="90" viewBox="0 0 90 90" fill="none" xmlns="http://www.w3.org/2000/svg">
<path d="M5.625 45C5.625 52.7876 7.9343 60.4004 12.2609 66.8756C16.5875 73.3508 22.737 78.3976 29.9318 81.3778C37.1267 84.358 45.0437 85.1377 52.6817 83.6184C60.3197 82.0991 67.3356 78.349 72.8423 72.8423C78.349 67.3356 82.0991 60.3197 83.6184 52.6817C85.1377 45.0437 84.358 37.1267 81.3778 29.9318C78.3976 22.737 73.3508 16.5875 66.8756 12.2609C60.4004 7.9343 52.7876 5.625 45 5.625C34.5571 5.625 24.5419 9.77343 17.1577 17.1577C9.77343 24.5419 5.625 34.5571 5.625 45ZM22.5 42.1875H56.6719L40.9781 26.4178L45 22.5L67.5 45L45 67.5L40.9781 63.4866L56.6719 47.8125H22.5V42.1875Z" fill="#FF010C"/>
<path d="M22.5 42.1875H56.6719L40.9781 26.4178L45 22.5L67.5 45L45 67.5L40.9781 63.4866L56.6719 47.8125H22.5V42.1875Z" fill="white"/>
</svg>
